HIERARCHY
ROOT pelvis
{
  OFFSET 0 100 0
  CHANNELS 6 Xposition Yposition Zposition Zrotation Xrotation Yrotation
  JOINT pelvis_right_femur
  {
    OFFSET -10.78128 -3.44521 -0.5502486
    CHANNELS 3 Zrotation Xrotation Yrotation
    JOINT right_femur_tibia
    {
      OFFSET -0.8047443 -44.0398 -0.1307829
      CHANNELS 3 Zrotation Xrotation Yrotation
      JOINT right_tibia_foot
      {
        OFFSET 3.006224 -47.83518 -5
        CHANNELS 3 Zrotation Xrotation Yrotation
        End Site
        {
          OFFSET 0 -5 15
        }
      }
    }
  }
  JOINT pelvis_left_femur
  {
    OFFSET 10.78128 -3.44521 -0.5502486
    CHANNELS 3 Zrotation Xrotation Yrotation
    JOINT left_femur_tibia
    {
      OFFSET 0.8047443 -44.0398 -0.1307829
      CHANNELS 3 Zrotation Xrotation Yrotation
      JOINT left_tibia_foot
      {
        OFFSET -4.370144 -48.10324 -4.275266
        CHANNELS 3 Zrotation Xrotation Yrotation
        End Site
        {
          OFFSET 0 -5 15
        }
      }
    }
  }
  JOINT pelvis_spine1
  {
    OFFSET 0 6.468898 -3.129235
    CHANNELS 3 Zrotation Xrotation Yrotation
    JOINT spine1
    {
      OFFSET 0 23.15396 4.99043
      CHANNELS 3 Zrotation Xrotation Yrotation
      JOINT spine2
      {
        OFFSET 0 20.79997 -5.064912
        CHANNELS 3 Zrotation Xrotation Yrotation
        JOINT neck
        {
          OFFSET 0 14.38658 9.616178
          CHANNELS 3 Zrotation Xrotation Yrotation
          End Site
          {
            OFFSET 0 20 0
          }
        }
      }
      JOINT right_manubrium
      {
        OFFSET -5.722621 16.35077 3.967754
        CHANNELS 3 Zrotation Xrotation Yrotation
        JOINT right_clavicle
        {
          OFFSET -13.16364 1.694482 -4.693211
          CHANNELS 3 Zrotation Xrotation Yrotation
          JOINT right_humerus
          {
            OFFSET -28.5034 -0.3100689 -2.792744
            CHANNELS 3 Zrotation Xrotation Yrotation
            JOINT right_radius
            {
              OFFSET -25.15693 0.02248979 -1.271978
              CHANNELS 3 Zrotation Xrotation Yrotation
              End Site
              {
                OFFSET -15 0 0
              }
            }
          }
        }
      }
      JOINT left_manubrium
      {
        OFFSET 5.722621 16.35077 3.967754
        CHANNELS 3 Zrotation Xrotation Yrotation
        JOINT left_clavicle
        {
          OFFSET 13.16364 1.694482 -4.693211
          CHANNELS 3 Zrotation Xrotation Yrotation
          JOINT left_humerus
          {
            OFFSET 29.39168 -1.063119 -2.237045
            CHANNELS 3 Zrotation Xrotation Yrotation
            JOINT left_radius
            {
              OFFSET 24.59957 -0.9528479 0.9047498
              CHANNELS 3 Zrotation Xrotation Yrotation
              End Site
              {
                OFFSET 15 -0 -0
              }
            }
          }
        }
      }
    }
  }
}
MOTION
Frames: 7
Frame Time: 0.0416666666667
0 103.5113 0 1.374211 -3.36091 0.2747499 1.465477 -10.68484 6.864292 -0 40.18528 -0 -6.160903 -16.7806 -4.203183 -6.514308 12.80792 -24.53492 -0 5.612292 -0 -0.1751425 -19.66895 23.666 -0.3685258 -2.215923 4.335926 -0.2548904 7.239392 -7.34959 1.848215 21.84221 8.292954 5.550899 -22.66108 9.145116 5.560952 -18.68672 9.592675 89.2728 35.55492 -24.3749 -0 0 17.36242 -6.576372 8.784282 1.577991 7.672656 -21.51077 -2.73819 -100.794 43.16511 28.39367 0 0 -26.87113 -9.968102 17.34307 29.41705
0.07668787 104.3167 1.343335 0.6440046 -2.624833 0.412424 2.721212 -13.81297 8.128104 -0 42.14042 -0 -6.28639 -15.92873 -4.53924 -5.926131 13.51218 -25.04565 -0 6.462309 -0 -1.4925 -20.72424 23.42245 -0.1977696 -2.062966 4.296263 -0.2513546 7.222081 -7.318776 1.847892 21.68011 8.37363 5.696782 -22.90474 9.134158 5.490373 -18.61097 9.660938 89.22092 35.75073 -24.13355 -0 0 17.23739 -6.574093 8.753289 1.608595 7.568156 -21.39482 -2.899308 -100.6307 42.68549 28.54965 0 0 -26.53757 -9.540811 17.12873 28.90569
0.2173211 103.297 6.005549 0.9516932 -4.275233 0.5346314 0.5746277 -23.7419 -5.564052 -0 11.95697 -0 -8.962838 0.5301851 -0.7762372 -5.611559 13.60103 -11.765 -0 10.24928 -0 -0.06114523 -22.06093 15.65519 -0.8680972 -0.1948024 3.537564 2.586225 8.151256 -8.229296 0.4970688 21.20129 8.057999 4.760849 -23.60246 7.375738 7.09669 -15.45563 11.70128 86.14755 36.13294 -21.49587 -0 0 10.63512 -10.51696 11.02206 7.653212 5.524729 -21.27346 -2.982248 -91.47283 31.81076 18.80567 0 0 -24.56578 -1.413932 14.04879 17.89632
0.3780362 102.6576 10.53407 0.5155877 -1.511459 0.6373162 1.812063 -29.03299 -3.145426 -0 11.68277 -0 -7.227149 -0.06413633 -1.115908 -5.866426 14.48784 -12.87146 -0 9.501904 -0 1.114606 -23.1693 16.16005 -0.6896139 0.04628194 3.223149 2.839725 8.122395 -8.406463 0.4322459 20.94348 8.12603 4.86221 -23.90469 7.250973 7.003491 -15.10803 11.87291 86.32466 35.92937 -21.68429 -0 0 9.932932 -10.64639 10.95323 7.883217 5.352777 -21.22461 -3.299168 -90.81492 30.90586 18.25835 0 0 -24.48118 -1.093912 13.43225 17.25882
0.5170308 102.3116 15.1681 -0.3071624 1.675876 1.011655 4.432593 -34.56848 0.3233736 -0 11.57826 -0 -5.946323 -0.5402088 -1.305765 -5.898255 15.32159 -14.37848 -0 11.01731 -0 2.484784 -23.45807 16.95006 -0.1178723 0.2322168 3.002753 2.943118 8.139825 -8.615546 0.4458571 20.34032 8.417357 5.206838 -24.50748 7.411047 6.80679 -14.77124 11.96264 87.02159 36.18606 -22.5061 -0 0 9.182719 -10.10361 10.97159 7.421188 5.612472 -21.51808 -3.590782 -90.30232 29.77319 18.04518 0 0 -25.01547 0.2703254 12.76181 15.76753
0.6037885 101.8832 20.31795 -0.503986 1.638908 1.527515 4.758295 -34.49661 -0.2062193 -0 10.4623 -0 -6.403306 0.9423637 -1.167853 -5.683835 16.2517 -13.39873 -0 14.18508 -0 1.157327 -22.71366 15.54142 -0.152743 0.3377694 2.736745 3.14017 8.048393 -8.669737 0.3953149 20.41943 8.257484 5.129232 -24.53605 7.167852 6.694313 -14.59989 12.0813 87.12051 36.01567 -22.57212 -0 0 8.78058 -10.29677 10.68553 7.707498 5.254288 -21.25217 -4.043266 -89.9281 29.52204 17.82265 0 0 -24.80169 -0.105211 12.43792 15.87754
0.6580876 101.6391 26.04884 -0.6124868 1.198859 2.069911 4.869195 -33.28385 -0.7437013 -0 9.672395 -0 -6.561389 2.315645 -1.41522 -5.417763 17.05851 -11.91779 -0 18.01566 -0 -0.8502073 -21.5162 13.80257 -0.2741682 0.435542 2.590058 3.375376 8.116171 -8.774267 0.3038185 20.44428 8.131864 4.994707 -24.4713 6.933488 6.711989 -14.39395 12.24521 87.03192 35.80484 -22.49546 -0 0 8.269599 -10.84327 10.75172 8.254696 4.993151 -21.17913 -4.234494 -89.30352 28.7187 17.13027 0 0 -24.6361 0.007243726 12.04154 15.43359
